<svg width="12" height="12" viewBox="0 0 12 12" fill="none" xmlns="http://www.w3.org/2000/svg">
<path d="M8.3871 7.37332C8.3871 3.48407 4.45942 2.05568 4.41933 2.04231C4.39133 2.03194 4.36107 2.02926 4.33169 2.03455C4.30231 2.03984 4.27488 2.0529 4.25226 2.07238C4.22982 2.09094 4.21262 2.11504 4.20236 2.14229C4.19211 2.16954 4.18915 2.19901 4.19379 2.22775C4.32911 3.03634 4.14701 3.41057 4.0167 3.68455C3.88639 3.95854 3.74773 4.2392 4.16372 4.69863C4.27273 4.8197 4.35575 4.96185 4.40763 5.11629C4.41831 5.14306 4.42324 5.17177 4.4221 5.20056C4.42096 5.22936 4.41378 5.25759 4.40101 5.28343C4.38825 5.30927 4.3702 5.33213 4.34803 5.35054C4.32585 5.36895 4.30006 5.38249 4.27231 5.39027C4.2439 5.40227 4.21332 5.40831 4.18248 5.40802C4.15164 5.40773 4.12119 5.40112 4.093 5.38859C4.06482 5.37606 4.0395 5.35789 4.01862 5.33519C3.99774 5.31249 3.98173 5.28575 3.9716 5.25662C3.88505 5.01816 3.82128 4.77203 3.78114 4.52154C3.77689 4.49082 3.76416 4.46189 3.74439 4.43799C3.72462 4.41409 3.69859 4.39616 3.66921 4.38622C3.63584 4.37501 3.59978 4.37463 3.56618 4.38513C3.53257 4.39563 3.50315 4.41647 3.4821 4.44469C3.36348 4.61176 3.23484 4.75376 3.11122 4.89911C2.68019 5.4003 2.2358 5.9182 2.12554 6.88884C2.0739 7.34277 2.1159 7.80247 2.24894 8.23953C2.38198 8.67658 2.60324 9.08171 2.89905 9.42988C3.17229 9.75465 3.5103 10.0188 3.89146 10.2055C4.27262 10.3922 4.68855 10.4973 5.11264 10.5141H5.24797H5.32314H5.37995C5.45965 10.5135 5.5391 10.5051 5.61718 10.4891C6.38047 10.3994 7.08426 10.0325 7.59489 9.45816C8.10552 8.88377 8.38743 8.14187 8.3871 7.37332ZM5.59212 10.1566C5.50023 10.1666 5.40835 10.1733 5.31479 10.1767C4.78854 10.1349 4.37756 9.63203 4.37756 9.01891C4.36565 8.64187 4.48956 8.27311 4.72673 7.97977C4.95468 7.68039 5.10815 7.33107 5.17446 6.96068C5.54631 7.16012 5.8568 7.45711 6.07255 7.81974C6.28831 8.18238 6.40118 8.59695 6.39904 9.01891C6.40987 9.2712 6.33647 9.51994 6.19037 9.72592C6.04428 9.9319 5.83381 10.0834 5.59212 10.1566ZM6.47254 9.89766C6.64395 9.63675 6.73461 9.33108 6.73316 9.01891C6.73316 7.22297 5.11264 6.55972 5.09761 6.55304C5.07361 6.54334 5.04769 6.53934 5.02189 6.54137C4.99608 6.5434 4.9711 6.5514 4.94892 6.56473C4.92699 6.57864 4.90842 6.59725 4.89455 6.6192C4.88068 6.64116 4.87186 6.66592 4.86873 6.6917C4.83686 7.09152 4.68943 7.47346 4.44439 7.79099C4.17063 8.14048 4.02868 8.57521 4.04343 9.01891C4.04152 9.39529 4.17358 9.76008 4.41599 10.048C3.92942 9.89115 3.49614 9.60191 3.16468 9.2127C2.89864 8.89923 2.69971 8.53455 2.58017 8.14117C2.46063 7.74779 2.42303 7.33408 2.46969 6.92559C2.56826 6.05853 2.96086 5.60078 3.37518 5.11629L3.54224 4.92918C3.57805 5.08053 3.62325 5.2295 3.67756 5.37524C3.70189 5.44594 3.7403 5.51097 3.79047 5.5664C3.84064 5.62183 3.90153 5.66651 3.96946 5.69775C4.03739 5.72898 4.11095 5.74611 4.18569 5.74811C4.26042 5.75011 4.33479 5.73693 4.40429 5.70937C4.47284 5.68655 4.53609 5.65015 4.59027 5.60235C4.64445 5.55455 4.68844 5.49632 4.71963 5.43115C4.75081 5.36597 4.76855 5.29518 4.77177 5.22301C4.775 5.15083 4.76366 5.07874 4.73842 5.01104C4.67097 4.81393 4.56411 4.6326 4.42434 4.47811C4.16038 4.18574 4.1988 4.10388 4.33078 3.83324C4.5496 3.41386 4.63472 2.93753 4.5747 2.46833C5.41503 2.84756 8.05297 4.28932 8.05297 7.37332C8.05415 7.75181 7.97816 8.12656 7.82966 8.47469C7.68116 8.82283 7.46325 9.13704 7.18925 9.39814C6.97844 9.60171 6.73649 9.77034 6.47254 9.89766Z" fill="#A87C4F" stroke="#A87C4F" stroke-width="0.2"/>
</svg>
